<svg xmlns="http://www.w3.org/2000/svg" version="1.1" xmlns:xlink="http://www.w3.org/1999/xlink" xmlns:svgjs="http://svgjs.dev/svgjs" width="1000" height="1000" viewBox="0 0 1000 1000"><rect width="1000" height="1000" fill="#000000"></rect><g transform="matrix(0.7,0,0,0.7,150,106.25)"><svg viewBox="0 0 320 360" data-background-color="#ffffff" preserveAspectRatio="xMidYMid meet" height="1125" width="1000" xmlns="http://www.w3.org/2000/svg" xmlns:xlink="http://www.w3.org/1999/xlink"><g id="tight-bounds" transform="matrix(1,0,0,1,0,0)"><svg viewBox="0 0 320 360" height="360" width="320"><g><svg></svg></g><g><svg viewBox="0 0 320 360" height="360" width="320"><g><path xmlns="http://www.w3.org/2000/svg" d="M160 340c88.258 0 160-71.742 160-160 0-88.258-71.742-160-160-160-88.258 0-160 71.742-160 160 0 88.258 71.742 160 160 160zM165.161 329.368v-10.323c72.671-2.684 131.2-61.213 133.884-133.884h10.323c-2.684 78.452-65.755 141.523-144.207 144.207zM165.161 30.632c78.452 2.684 141.523 65.755 144.207 144.207h-10.323c-2.684-72.671-61.213-131.2-133.884-133.884zM289.032 180c0 71.123-57.91 129.032-129.032 129.032-71.123 0-129.032-57.91-129.032-129.032 0-71.123 57.91-129.032 129.032-129.032 71.123 0 129.032 57.91 129.032 129.032zM154.839 30.632v10.323c-72.671 2.684-131.2 61.213-133.884 133.884h-10.323c2.684-78.452 65.755-141.523 144.207-144.207zM20.955 185.161c2.684 72.671 61.213 131.2 133.884 133.884v10.323c-78.452-2.684-141.523-65.755-144.207-144.207z" fill="#ffffff" fill-rule="nonzero" stroke="none" stroke-width="1" stroke-linecap="butt" stroke-linejoin="miter" stroke-miterlimit="10" stroke-dasharray="" stroke-dashoffset="0" font-family="none" font-weight="none" font-size="none" text-anchor="none" style="mix-blend-mode: normal" data-fill-palette-color="tertiary"></path></g><g transform="matrix(1,0,0,1,64,123.90640055058499)"><svg viewBox="0 0 192 112.18719889883002" height="112.18719889883002" width="192"><g><svg viewBox="0 0 192 112.18719889883002" height="112.18719889883002" width="192"><g><svg viewBox="0 0 192 112.18719889883002" height="112.18719889883002" width="192"><g id="textblocktransform"><svg viewBox="0 0 192 112.18719889883002" height="112.18719889883002" width="192" id="textblock"><g><svg viewBox="0 0 192 112.18719889883002" height="112.18719889883002" width="192"><g transform="matrix(1,0,0,1,0,0)"><svg width="192" viewBox="1.350000023841858 -36.5 72.6500015258789 42.45000076293945" height="112.18719889883002" data-palette-color="#000000"><path d="M19.45 5.95L3.65 5.95Q2.45 5.95 1.9 5.4 1.35 4.85 1.35 3.65L1.35 3.65 1.35-2.2Q1.35-2.85 1.53-3.3 1.7-3.75 2.05-4.05L2.05-4.05 7.05-8.25Q4.4-9.05 2.88-10.98 1.35-12.9 1.35-16.5L1.35-16.5 1.35-21.75Q1.35-24 2.1-25.75 2.85-27.5 4.25-28.7L4.25-28.7 10.75-34.15Q12.1-35.25 14.1-35.88 16.1-36.5 18.65-36.5L18.65-36.5 32.65-36.5Q33.85-36.5 34.4-35.95 34.95-35.4 34.95-34.2L34.95-34.2 34.95-28.25Q34.95-27.6 34.77-27.15 34.6-26.7 34.25-26.4L34.25-26.4 29.75-22.65Q32.9-21.95 34.83-20.03 36.75-18.1 36.75-14.05L36.75-14.05 36.75-8.8Q36.75-6.55 36-4.8 35.25-3.05 33.8-1.85L33.8-1.85 27.35 3.55Q25.95 4.7 23.95 5.33 21.95 5.95 19.45 5.95L19.45 5.95ZM10.1 0L25.9 0Q30.7 0 33.48-2.27 36.25-4.55 36.25-8.8L36.25-8.8 36.25-14.05Q36.25-18.25 34.1-20.05 31.95-21.85 28.45-22.35L28.45-22.35 21-23.35Q20.35-23.4 20-23.85 19.65-24.3 19.65-24.95L19.65-24.95Q19.65-25.6 20-26.03 20.35-26.45 21-26.45L21-26.45 32.65-26.45Q33.6-26.45 34.02-26.88 34.45-27.3 34.45-28.25L34.45-28.25 34.45-34.2Q34.45-35.15 34.02-35.58 33.6-36 32.65-36L32.65-36 18.65-36Q13.8-36 11.05-33.73 8.3-31.45 8.3-27.2L8.3-27.2 8.3-21.95Q8.3-17.75 10.43-15.95 12.55-14.15 16.05-13.65L16.05-13.65 23.55-12.6Q24.2-12.55 24.53-12.15 24.85-11.75 24.85-10.9L24.85-10.9Q24.85-10.3 24.53-9.88 24.2-9.45 23.55-9.45L23.55-9.45 10.1-9.45Q9.15-9.45 8.72-9.03 8.3-8.6 8.3-7.65L8.3-7.65 8.3-1.8Q8.3-0.85 8.72-0.43 9.15 0 10.1 0L10.1 0ZM18.85-31.5L29.95-31.5 29.95-31 18.85-31Q16.75-31 15.5-29.85 14.25-28.7 14.25-26.95L14.25-26.95 14.25-22.85Q14.25-21.1 14.95-20.4 15.65-19.7 16.8-19.5L16.8-19.5 27.35-17.35Q28.85-17.05 29.83-16.05 30.8-15.05 30.8-12.45L30.8-12.45 30.8-9.55Q30.8-7.35 29.3-5.93 27.8-4.5 25.25-4.5L25.25-4.5 12.8-4.5 12.8-5 25.25-5Q27.55-5 28.93-6.28 30.3-7.55 30.3-9.55L30.3-9.55 30.3-12.45Q30.3-14.8 29.48-15.68 28.65-16.55 27.25-16.85L27.25-16.85 16.7-19Q15.4-19.25 14.58-20.03 13.75-20.8 13.75-22.85L13.75-22.85 13.75-26.95Q13.75-28.95 15.15-30.23 16.55-31.5 18.85-31.5L18.85-31.5ZM56.7 5.95L40.9 5.95Q39.7 5.95 39.15 5.4 38.6 4.85 38.6 3.65L38.6 3.65 38.6-2.2Q38.6-2.85 38.77-3.3 38.95-3.75 39.3-4.05L39.3-4.05 44.3-8.25Q41.65-9.05 40.12-10.98 38.6-12.9 38.6-16.5L38.6-16.5 38.6-21.75Q38.6-24 39.35-25.75 40.1-27.5 41.5-28.7L41.5-28.7 48-34.15Q49.35-35.25 51.35-35.88 53.35-36.5 55.9-36.5L55.9-36.5 69.9-36.5Q71.1-36.5 71.65-35.95 72.2-35.4 72.2-34.2L72.2-34.2 72.2-28.25Q72.2-27.6 72.02-27.15 71.85-26.7 71.5-26.4L71.5-26.4 67-22.65Q70.15-21.95 72.07-20.03 74-18.1 74-14.05L74-14.05 74-8.8Q74-6.55 73.25-4.8 72.5-3.05 71.05-1.85L71.05-1.85 64.6 3.55Q63.2 4.7 61.2 5.33 59.2 5.95 56.7 5.95L56.7 5.95ZM47.35 0L63.15 0Q67.95 0 70.72-2.27 73.5-4.55 73.5-8.8L73.5-8.8 73.5-14.05Q73.5-18.25 71.35-20.05 69.2-21.85 65.7-22.35L65.7-22.35 58.25-23.35Q57.6-23.4 57.25-23.85 56.9-24.3 56.9-24.95L56.9-24.95Q56.9-25.6 57.25-26.03 57.6-26.45 58.25-26.45L58.25-26.45 69.9-26.45Q70.85-26.45 71.27-26.88 71.7-27.3 71.7-28.25L71.7-28.25 71.7-34.2Q71.7-35.15 71.27-35.58 70.85-36 69.9-36L69.9-36 55.9-36Q51.05-36 48.3-33.73 45.55-31.45 45.55-27.2L45.55-27.2 45.55-21.95Q45.55-17.75 47.67-15.95 49.8-14.15 53.3-13.65L53.3-13.65 60.8-12.6Q61.45-12.55 61.77-12.15 62.1-11.75 62.1-10.9L62.1-10.9Q62.1-10.3 61.77-9.88 61.45-9.45 60.8-9.45L60.8-9.45 47.35-9.45Q46.4-9.45 45.97-9.03 45.55-8.6 45.55-7.65L45.55-7.65 45.55-1.8Q45.55-0.85 45.97-0.43 46.4 0 47.35 0L47.35 0ZM56.1-31.5L67.2-31.5 67.2-31 56.1-31Q54-31 52.75-29.85 51.5-28.7 51.5-26.95L51.5-26.95 51.5-22.85Q51.5-21.1 52.2-20.4 52.9-19.7 54.05-19.5L54.05-19.5 64.6-17.35Q66.1-17.05 67.07-16.05 68.05-15.05 68.05-12.45L68.05-12.45 68.05-9.55Q68.05-7.35 66.55-5.93 65.05-4.5 62.5-4.5L62.5-4.5 50.05-4.5 50.05-5 62.5-5Q64.8-5 66.17-6.28 67.55-7.55 67.55-9.55L67.55-9.55 67.55-12.45Q67.55-14.8 66.72-15.68 65.9-16.55 64.5-16.85L64.5-16.85 53.95-19Q52.65-19.25 51.82-20.03 51-20.8 51-22.85L51-22.85 51-26.95Q51-28.95 52.4-30.23 53.8-31.5 56.1-31.5L56.1-31.5Z" opacity="1" transform="matrix(1,0,0,1,0,0)" fill="#ffffff" class="wordmark-text-0" data-fill-palette-color="primary" id="text-0"></path></svg></g></svg></g></svg></g></svg></g></svg></g></svg></g></svg></g><defs></defs></svg><rect width="320" height="360" fill="none" stroke="none" visibility="hidden"></rect></g></svg></g></svg>